inDegrees=no
num_controls=7
num_derivatives=13
num_iterations=106
num_multipliers=7
num_parameters=0
num_slacks=7
num_states=26
objective=0.430111
objective_accelerations=0.050200
objective_balance=0.001213
objective_effort=0.012595
objective_height=0.360111
objective_ligament=0.005993
solver_duration=1561.559431
status=Solve_Succeeded
success=true
DataType=double
version=3
OpenSimVersion=4.5
endheader
time	/jointset/ground_pelvis/pelvis_tilt/value	/jointset/ground_pelvis/pelvis_tx/value	/jointset/ground_pelvis/pelvis_ty/value	/jointset/hip_l/hip_flexion_l/value	/jointset/hip_l/hip_adduction_l/value	/jointset/hip_l/hip_rotation_l/value	/jointset/back/lumbar_extension/value	/jointset/patellofemoral_l/patellar_flexion_l/value	/jointset/knee_l/knee_flexion_l/value	/jointset/knee_l/knee_adduction_l/value	/jointset/knee_l/knee_rotation_l/value	/jointset/ankle_l/ankle_angle_l/value	/jointset/subtalar_l/subtalar_angle_l/value	/jointset/ground_pelvis/pelvis_tilt/speed	/jointset/ground_pelvis/pelvis_tx/speed	/jointset/ground_pelvis/pelvis_ty/speed	/jointset/hip_l/hip_flexion_l/speed	/jointset/hip_l/hip_adduction_l/speed	/jointset/hip_l/hip_rotation_l/speed	/jointset/back/lumbar_extension/speed	/jointset/patellofemoral_l/patellar_flexion_l/speed	/jointset/knee_l/knee_flexion_l/speed	/jointset/knee_l/knee_adduction_l/speed	/jointset/knee_l/knee_rotation_l/speed	/jointset/ankle_l/ankle_angle_l/speed	/jointset/subtalar_l/subtalar_angle_l/speed	/forceset/tau_hip_flexion_l	/forceset/tau_hip_adduction_l	/forceset/tau_hip_rotation_l	/forceset/tau_knee_flexion_l	/forceset/tau_ankle_angle_l	/forceset/tau_subtalar_angle_l	/forceset/tau_lumbar_extension	lambda_cid13_p0	lambda_cid13_p1	lambda_cid13_p2	lambda_cid13_p3	lambda_cid13_p4	lambda_cid13_p5	lambda_cid14_p0	/jointset/ground_pelvis/pelvis_tilt/accel	/jointset/ground_pelvis/pelvis_tx/accel	/jointset/ground_pelvis/pelvis_ty/accel	/jointset/hip_l/hip_flexion_l/accel	/jointset/hip_l/hip_adduction_l/accel	/jointset/hip_l/hip_rotation_l/accel	/jointset/back/lumbar_extension/accel	/jointset/patellofemoral_l/patellar_flexion_l/accel	/jointset/knee_l/knee_flexion_l/accel	/jointset/knee_l/knee_adduction_l/accel	/jointset/knee_l/knee_rotation_l/accel	/jointset/ankle_l/ankle_angle_l/accel	/jointset/subtalar_l/subtalar_angle_l/accel	gamma_cid13_p0	gamma_cid13_p1	gamma_cid13_p2	gamma_cid13_p3	gamma_cid13_p4	gamma_cid13_p5	gamma_cid14_p0
0	0.04746710015479964	0.1083206467855421	0.9028482169421977	0.1266922784136757	-0.3702045572366772	-0.2283114819023447	-0.2144969558742783	0.2051545070141885	0.2051545070141877	-0.1745303631342835	-0.1633918041074285	0.09024313228550125	0.07888961830736103	0	0	0	0	0	0	0	0	0	0	0	0	0	0.1113965157676835	-0.07870590836204347	-0.01049455717908379	-0.2503772274126047	0.1876399024536035	-0.07053116558774433	-0.0439699221713727	30.49844703775945	26.03091974446524	-5.275499683814144	-24.15090153465344	-440.7470734152504	-65.85106505614037	-26.35912755362395	-2.708267243090386	-0.7796932392688033	-0.748280777156306	9.820054628106618	-0.1311223859087584	2.999813092925538	-3.407424707248274	9.710359530845288	9.710359530845651	2.144150918297909	-0.7668092892241198	3.532198810807798	0.8810956325928061	-1.344842099470762e-09	4.976392226919236e-07	-9.398420332573936e-08	4.871236014351328e-08	-1.790254968598979e-09	2.256658155786074e-07	6.136744694026413e-08
0.01	0.04733866963616058	0.1082814784015129	0.9028119570961135	0.1271694904747516	-0.3702101337549055	-0.2281552406235793	-0.2146707718387453	0.205627772234603	0.2056277722346024	-0.1744247641459486	-0.1634192896702344	0.09041499868969513	0.07893323255302181	-0.02555585195099215	-0.007876561713041274	-0.00722796644616973	0.09508709480582041	-0.00109967345160537	0.0311203096409581	-0.03451671498203594	0.0942017244839044	0.09420172448390615	0.02102558115110225	-0.005442138682388751	0.0341042935304095	0.008662091517338736	0.1066380526026231	-0.08980484622677519	-0.009100711948475265	-0.2424320144237834	0.1717392261596242	-0.05631634971346158	-0.04054215851065996	26.14964638531491	20.11369279836448	-3.755098253268068	-21.07277656263366	-441.3937407233894	-77.57598416074322	-26.35902141356244	-2.459706482615429	-0.7980606309514986	-0.7064545207960182	9.299738390758572	-0.09710255816530436	3.148976807987585	-3.436823206965933	9.207368693824471	9.207368693824568	2.067701039465942	-0.4246965941585856	3.309209321962476	0.8495853225926302	-5.837606666212059e-09	7.399081804834865e-07	-9.444419097552849e-08	7.768224666111266e-08	-1.464205203817139e-07	2.585022695079765e-07	9.570817344853368e-08
0.02	0.04695858813570867	0.1081622598016272	0.9027041375970778	0.128586913780673	-0.3702262495543248	-0.2276916288667423	-0.2151823606156897	0.2070295126571893	0.2070295126571887	-0.1741117214809062	-0.1634995527071455	0.09091984096875429	0.07906163159611361	-0.05033019636245503	-0.01601004317127509	-0.01431193059026794	0.1880422489691949	-0.002107856238366144	0.06147409561418181	-0.0675545624954579	0.1856950404342675	0.1856950404342715	0.04148873534018571	-0.01055549482127133	0.06659517497301667	0.01695695948620561	0.1018795894375599	-0.100903784091511	-0.007706866717870336	-0.2344868014349629	0.1558385498656436	-0.04210153383918355	-0.03711439484994922	21.84471537105871	14.19858688089186	-2.246233992828552	-18.05757043434227	-441.2761616509334	-89.14065122383718	-26.35846206359898	-2.551965735184525	-0.8310771883073192	-0.7194803167420027	9.393666499617446	-0.1128242529398458	2.846508359378662	-3.111651213525474	9.168677824137021	9.16867782413749	2.031665525894137	-0.7010527805228884	3.209516393247319	0.8076509228984231	-1.033037123295336e-08	9.821771382750494e-07	-9.490417862531762e-08	1.06652133178712e-07	-2.910507857948289e-07	2.913387234373456e-07	1.300488999568032e-07
0.03	0.04633390619109117	0.107961208609711	0.9025259213348131	0.1309234333813	-0.3702520314855682	-0.2269291618252389	-0.216016650682678	0.209333421471182	0.2093334214711808	-0.1735969012319941	-0.1636301484797987	0.09174277275424877	0.07927151031494203	-0.07451413099632193	-0.02416280380964986	-0.02132877943396082	0.2788521385079005	-0.003045097047582088	0.09090393939527394	-0.09906804273905456	0.2746488729153542	0.2746488729153673	0.06134031666815899	-0.01548274386787228	0.09782680801996049	0.02497849850767184	0.09912154896856348	-0.0954700869447377	-0.007066258673534075	-0.2315735747974899	0.1525754585313112	-0.04502906897369616	-0.03496940395660949	20.62343100710221	15.61870908372333	-2.398228677889909	-17.2420494873386	-441.3178307466809	-85.61034046386507	-26.35712058710511	-2.33779163891526	-0.8017453438015613	-0.6924645983983579	8.863221063796095	-0.08379178896679354	2.973960395963336	-3.135885205291181	8.693032394233963	8.693032394235045	1.941811662143764	-0.3764618848249527	3.055359862824608	0.7932188572132784	-1.714009311630395e-08	1.081487409412404e-06	-7.858521341566648e-08	1.24609623135747e-07	-4.056230757099338e-07	2.888973828026009e-07	1.440938581616971e-07
0.04	0.04547014803784907	0.1076797558429712	0.9022776010980684	0.1341557660538725	-0.3702871093837142	-0.225875848744227	-0.2171590133072054	0.2125137278968134	0.2125137278968134	-0.1728875837246248	-0.1638075969265369	0.09287309549069381	0.07956036711707359	-0.0981454380872893	-0.03209035813599191	-0.02833272548625093	0.3672048633585648	-0.003967049618972664	0.1196433035159201	-0.1291690740032269	0.3609745627620201	0.3609745627620403	0.08038818703192557	-0.01992602963832391	0.1280733651631723	0.03275257614683996	0.09636350849955792	-0.09003638979796151	-0.006425650629202439	-0.2286603481600149	0.1493123671969815	-0.0479566041082048	-0.032824413063281	19.44194128857067	17.04522414317458	-2.566505836286729	-16.47796555213018	-440.6486635844045	-81.91880575052768	-26.35431407512136	-2.441440226604617	-0.7860359259007813	-0.7168997584614502	8.902233562009197	-0.1097666053747756	2.708412427289474	-2.829161417640603	8.643049297252848	8.643049297252928	1.870923333052792	-0.6042601252930271	3.012501212500906	0.7581586464387954	-2.399758731546092e-08	1.177850078763075e-06	-6.192029041509905e-08	1.423400533698837e-07	-5.195756135529149e-07	2.857286649603487e-07	1.577203469170369e-07
0.05	0.04437250251421702	0.1073199305669443	0.9019591034017883	0.1382602923893638	-0.3703312670312461	-0.2245402632405473	-0.21859496245443	0.2165448694925632	0.2165448694925624	-0.1719916056980713	-0.1640287435561562	0.09430083783418028	0.07992580272311885	-0.1212801755834788	-0.03985785326783999	-0.03537684209113932	0.4533069151559126	-0.004846213737442411	0.1473469629058819	-0.1577961299950749	0.4448138241649338	0.4448138241649647	0.09868585653378717	-0.02421365909425054	0.157283158823772	0.04030420090926595	0.0927600961068907	-0.08834220644828863	-0.0054458939921238	-0.2247010520469842	0.1428605017308042	-0.04652357455577344	-0.03016325370506612	17.46768753940124	16.61830407560745	-2.326840229642399	-15.14160752522319	-440.2247133821749	-81.9869286727166	-26.34931632744801	-2.233955209397883	-0.7695511253317806	-0.6997766956605833	8.405170007340352	-0.07441674715158307	2.78236273752891	-2.845783872952745	8.188343074160038	8.188343074161541	1.79114845125349	-0.3276053472099822	2.846462649178031	0.7489347141950866	-2.554195222775481e-08	1.212140290161571e-06	-8.188473350566957e-08	1.513751174477542e-07	-5.8041242174181e-07	3.077637742689527e-07	1.666233288188567e-07
